<?xml version="1.0" encoding="UTF-8" standalone="no"?>
<svg
   xmlns:dc="http://purl.org/dc/elements/1.1/"
   xmlns:cc="http://creativecommons.org/ns#"
   xmlns:rdf="http://www.w3.org/1999/02/22-rdf-syntax-ns#"
   xmlns:svg="http://www.w3.org/2000/svg"
   xmlns="http://www.w3.org/2000/svg"
   xmlns:xlink="http://www.w3.org/1999/xlink"
   id="Capa_1"
   data-name="Capa 1"
   viewBox="0 0 872.45919 306.07925"
   version="1.1"
   width="872.45923"
   height="306.07925">
  <metadata
     id="metadata181">
    <rdf:RDF>
      <cc:Work
         rdf:about="">
        <dc:format>image/svg+xml</dc:format>
        <dc:type
           rdf:resource="http://purl.org/dc/dcmitype/StillImage" />
        <dc:title>PP</dc:title>
      </cc:Work>
    </rdf:RDF>
  </metadata>
  <defs
     id="defs13">
    <radialGradient
       gradientUnits="userSpaceOnUse"
       gradientTransform="matrix(1.03,0,0,1.03,-398.59,-65.54)"
       r="323.34"
       cy="356.03"
       cx="775.98999"
       id="Degradado_sin_nombre_174">
      <stop
         id="stop4034"
         stop-color="#f3c006"
         offset="0" />
      <stop
         id="stop4036"
         stop-color="#e59616"
         offset="0.33" />
      <stop
         id="stop4038"
         stop-color="#d56224"
         offset="0.66" />
      <stop
         id="stop4040"
         stop-color="#c40904"
         offset="1" />
    </radialGradient>
    <style
       id="style2">.cls-1{fill:url(#Degradado_sin_nombre_174);}.cls-2{fill:#70767c;opacity:0.49;}.cls-2,.cls-3,.cls-37,.cls-38,.cls-52{isolation:isolate;}.cls-3{fill:#7790aa;opacity:0.8;}.cls-4{fill:#0056a3;}.cls-5{fill:#863a6c;}.cls-6{fill:#7f3c71;}.cls-7{fill:#7e3e73;}.cls-8{fill:#833c6e;}.cls-9{fill:#71427a;}.cls-10{fill:#8b3563;}.cls-11{fill:#634680;}.cls-12{fill:#723e74;}.cls-13{fill:#813a6c;}.cls-14{fill:#6f4178;}.cls-15{fill:#7f3769;}.cls-16{fill:#6d4178;}.cls-17{fill:#7e3b6f;}.cls-18{fill:#7c3e72;}.cls-19{fill:#774076;}.cls-20{fill:#744076;}.cls-21{fill:#7a3f75;}.cls-22{fill:#86396b;}.cls-23{fill:#7b3a6d;}.cls-24{fill:#8e3463;}.cls-25{fill:#6a4078;}.cls-26{fill:#6d4078;}.cls-27{fill:#7d396a;}.cls-28{fill:#534582;}.cls-29{fill:#843d6c;}.cls-30{fill:#65427a;}.cls-31{fill:#773e73;}.cls-32{fill:#7a3c71;}.cls-33{fill:#fff;}.cls-34{fill:#714279;}.cls-35{fill:#7f3d71;}.cls-36{fill:#734279;}.cls-37{fill:#6c7273;opacity:0.47;}.cls-38{fill:#737a7d;opacity:0.5;}.cls-39{fill:#794076;}.cls-40{fill:#783f74;}.cls-41{fill:#784076;}.cls-42{fill:#7d3d72;}.cls-43{fill:#87396b;}.cls-44{fill:#7c3c70;}.cls-45{fill:#733d73;}.cls-46{fill:#783d72;}.cls-47{fill:#7e3c6f;}.cls-48{fill:#7f396c;}.cls-49{fill:#783f75;}.cls-50{fill:#754077;}.cls-51{fill:#70447d;}.cls-52{fill:#8b9aa8;opacity:0.72;}</style>
    <radialGradient
       id="Degradado_sin_nombre_174-9"
       cx="775.98999"
       cy="356.03"
       r="323.34"
       gradientTransform="matrix(1.03,0,0,1.03,-398.59,-65.54)"
       gradientUnits="userSpaceOnUse">
      <stop
         style="stop-color:#c5342e;stop-opacity:1"
         id="stop10"
         stop-color="#c40904"
         offset="0" />
      <stop
         id="stop8"
         stop-color="#d56224"
         offset="0.34"
         style="stop-color:#ca332f;stop-opacity:1" />
      <stop
         id="stop6"
         stop-color="#e59616"
         offset="0.67"
         style="stop-color:#e02e31;stop-opacity:1" />
      <stop
         id="stop4"
         stop-color="#f3c006"
         offset="1"
         style="stop-color:#e02e31;stop-opacity:1" />
    </radialGradient>
    <clipPath
       clipPathUnits="userSpaceOnUse"
       id="clipPath4683">
      <path
         class="cls-4"
         d="m 325,198.08 -0.64,-0.14 c -24.55084,2.81987 -48.72266,8.29868 -72.09,16.34 -15.51621,5.21931 -30.58803,11.67675 -45.07,19.31 -11.54535,6.00616 -22.68577,12.76056 -33.35,20.22 -0.7,0.65 -1.93,1.07 -2.24,2 -1.8948,0.97109 -3.68715,2.13025 -5.35,3.46 -6.85,5.31 -13.72,10.62 -20,16.57 -5.51,4.54 -10.38,9.78 -15.42,14.82 -2.32,2.7 -5.4,5 -7.08,8.11 -4.63,4.38 -8.5,9.51 -12.31,14.6 -2.7,3.57 -5.87,7.06 -7.85,11 -7.76216,10.51525 -14.49325,21.75382 -20.1,33.56 -1.62,1.28 -2.31,3.25 -3.16,5.05 -1.09,2.5 -2.75,4.83 -2.83,7.65 -2.82208,5.9567 -5.24736,12.09341 -7.26,18.37 -2.16029,3.49787 -3.48462,7.44691 -3.87,11.54 -0.39137,1.0473 -0.69901,2.12402 -0.92,3.22 -1.49,1.79 -1.75,4.16 -2.29,6.34 -0.58,2.81 -1.74,5.54 -1.57,8.47 l -0.08,0.35 c -2.27,2.55 -1.92,6.38 -2.19,9.58 -0.41505,1.40702 -0.6963,2.85009 -0.84,4.31 -1.86,4.21 -2.14,9 -2.12,13.62 l -0.1,0.56 c -1.37,3.18 -1.14,6.76 -1.73,10.13 -2.26,16.94 -2.29,34.06 -2,51.11 0.0902,11.01238 0.91202,22.00659 2.46,32.91 0.33,2.44 0.37,5 1.3,7.31 l 0.24,1.29 c -0.13645,5.70346 0.7858,11.38279 2.72,16.75 l 0.1,0.48 c 0.22,3.58 0.15,7.52 2.16,10.65 1.46794,7.83175 3.47267,15.5533 6,23.11 0.22354,3.08981 1.08499,6.09977 2.53,8.84 v -0.78 c 0.87489,3.77137 2.09676,7.45372 3.65,11 0.29639,3.46006 1.56907,6.76486 3.67,9.53 l 0.25,0.57 c 0.0142,2.4925 1.01776,4.87731 2.79,6.63 11.24475,26.87997 26.80274,51.7437 46.06,73.61 11.10293,12.15769 23.08888,23.4785 35.86,33.87 6.82,5.22 14.2,10.55 23,11.67 4.12,0.38 9.14,-1.12 10.93,-5.19 2.4,-2.41 1.88,-6.26 1.94,-9.38 -0.37,-3.14 -0.1,-6.7 -2,-9.39 -0.20524,-1.4307 -0.53995,-2.83982 -1,-4.21 -0.41,-4 -0.94,-8.18 -3.06,-11.65 -2.29,-9.21 -4.83,-18.39 -7.87,-27.37 -0.34,-3.34 -0.94,-6.85 -3,-9.61 -2.2,-7.82 -4.57,-15.63 -7.26,-23.3 -0.73,-4.29 -1.69,-8.66 -3.83,-12.49 l -0.15,-0.51 c -0.52186,-4.39598 -1.79007,-8.67067 -3.75,-12.64 -0.49965,-2.44984 -1.1679,-4.86225 -2,-7.22 -1.11,-5.33 -1.82,-10.94 -4.22,-15.85 -0.19568,-1.12258 -0.46289,-2.2315 -0.8,-3.32 -0.20142,-4.35447 -1.15552,-8.64116 -2.82,-12.67 -0.23638,-1.83228 -0.61078,-3.6441 -1.12,-5.42 -0.3,-3.93 -0.24,-8.19 -2.1,-11.75 -3.11103,-20.68498 -4.1895,-41.62486 -3.22,-62.52 1.23,-5.11 0.62,-10.61 1.54,-15.84 0.88667,-7.12667 2.08667,-14.20667 3.6,-21.24 l -0.7,-0.75 0.69,0.51 c 1.19,-7.15 3.45,-14.05 5,-21.12 2.28,-6.94 5,-13.82 7,-20.82 0.78486,-1.21138 1.45446,-2.49365 2,-3.83 3.69,-9.41 8.45,-18.34 13.27,-27.21 5.46449,-9.39043 11.68508,-18.31998 18.6,-26.7 l -0.08,-0.46 c 2.00041,-1.99694 3.89946,-4.09291 5.69,-6.28 5.32,-6.28 11.47,-11.78 17.27,-17.57 11.43,-9.66 23.3,-18.88 36.26,-26.42 v -0.29 c 5.11,-2.53 9.92,-5.6 15,-8.12 21.24056,-10.87067 43.80241,-18.93808 67.12,-24 32.38,-7.15 66.19,-8.69 98.86,-2.51 19,3.09 37.28,9.15 55.12,16.11 9.92,4.54 19.75,9.28 29.39,14.38 v 0.21 c 13.32211,7.60522 26.06353,16.18529 38.12,25.67 v 0.23 c 8.38017,6.76638 16.31032,14.07187 23.74,21.87 7.13,7.59 13.58,15.79 20,24 1.16,3.6 4.8,6.61 8.76,5.56 3.21,-1.23 5.47,-4 8,-6.3 v -0.17 c 5.83,-4.34 11.07,-9.43 16.87,-13.82 V 376 c 2.77912,-1.87427 5.4501,-3.90418 8,-6.08 2.61,-1.95 5.43,-3.7 7.85,-5.86 1,-0.66 2,-1.36 2.9,-2.1 3.7203,-1.61185 7.0722,-3.96665 9.85,-6.92 4.93,-2.68 9.51,-6 14.3,-8.91 3.17,-0.77 6.74,-2.33 8.57,-5.07 2.5043,-1.2327 4.932,-2.6152 7.27,-4.14 2.5,-0.69 5.11,-1.63 6.84,-3.67 2.8778,-1.16388 5.6569,-2.55842 8.31,-4.17 2.4602,-0.18933 4.7607,-1.29146 6.45,-3.09 2.9168,-1.1258 5.7709,-2.40765 8.55,-3.84 3.53,-0.23 6.63,-2.05 9.44,-4 l 0.5,-0.25 c 2.3489,-0.2212 4.5912,-1.08628 6.48,-2.5 l 1.51,-0.51 c 3.378,-0.47178 6.6166,-1.65813 9.5,-3.48 l 1.85,-0.59 c 2.6013,-0.18557 5.1083,-1.05111 7.27,-2.51 4.83,-1.24 9.59,-2.74 14.35,-4.25 3.7103,-0.15825 7.3414,-1.12403 10.64,-2.83 l 0.52,-0.12 c 4.57,-0.44 9.38,-1 13.56,-3 1.82,-0.28 3.62,-0.65 5.43,-1.06 5.3063,-0.13439 10.5648,-1.04056 15.61,-2.69 3.1312,-0.29357 6.2453,-0.7475 9.33,-1.36 5.48,0.34 10.88,-0.82 16.34,-1.08 6.3,-1.23 12.79,-0.28 19.06,-1.68 8.92,-0.18 17.8467,-0.18 26.78,0 4.3,1.11 8.78,0.72 13.19,1 5.65,0.59 11.32,1.32 17,1.56 2.33,0.05 4.09,-1.75 5.13,-3.66 1.43,-3.26 0.63,-7.62 -2.8,-9.24 -14.37,-8.57 -29.38,-16.3 -45.18,-21.85 -3.1717,-2.04621 -6.7775,-3.32345 -10.53,-3.73 l -0.58,-0.19 c -2.48,-2.38 -6.2,-2.64 -9.43,-2.9 -1.4289,-0.51933 -2.8968,-0.92395 -4.39,-1.21 -3.53,-2 -7.72,-2.58 -11.71,-2.75 -1.6882,-0.4661 -3.41,-0.80044 -5.15,-1 -4.0361,-1.63861 -8.396,-2.32306 -12.74,-2 l -0.45,-0.08 c -7.86,-2 -16.15,-1.63 -24.2,-2.55 -9.7796,-0.46371 -19.5812,0.0118 -29.27,1.42 -3.4732,0.18359 -6.9306,0.59447 -10.35,1.23 -5.6362,-0.0721 -11.2393,0.87299 -16.54,2.79 l -0.61,0.13 c -4.3484,0.0767 -8.6277,1.10051 -12.54,3 l -0.45,0.14 c -4.6589,0.47871 -9.1941,1.78948 -13.39,3.87 l -0.6,0.17 c -2.7355,0.12292 -5.4038,0.88677 -7.79,2.23 l 0.84,0.24 c -1.3834,0.28985 -2.7266,0.74652 -4,1.36 -2.7488,0.0698 -5.3786,1.13591 -7.4,3 l -0.57,0.22 c -3.0997,0.43324 -6.0164,1.72529 -8.42,3.73 l -0.6,0.23 c -2.53,0 -4.66,1.36 -6.44,3 -11.8126,5.59156 -23.1443,12.14708 -33.88,19.6 -1.7054,1.01348 -3.3392,2.1428 -4.89,3.38 -2.55,1.7 -5,3.54 -7.4,5.43 -4.25,3.16 -8.4,6.46 -12.39,9.95 -3.93,3 -7.74,8.62 -13.4,6 -0.9541,-0.90133 -1.83053,-1.88146 -2.62,-2.93 -8.34896,-13.10489 -18.19155,-25.19588 -29.33,-36.03 -13.61625,-13.55574 -28.92622,-25.29618 -45.55,-34.93 -31.2,-18.36 -66,-30 -101.53,-36.51 -36.93,-6.51 -74.89,-9 -112.2,-4.28"
         id="path4685"
         style="fill:#0056a3" />
    </clipPath>
    <linearGradient
       xlink:href="#Degradado_sin_nombre_174-9"
       id="linearGradient959"
       x1="133.4165"
       y1="411.10944"
       x2="522.28693"
       y2="411.10944"
       gradientUnits="userSpaceOnUse"
       gradientTransform="translate(53.744271,27.038219)" />
    <radialGradient
       id="Degradado_sin_nombre_174-9-0"
       cx="775.98999"
       cy="356.03"
       r="323.34"
       gradientTransform="matrix(1.03,0,0,1.03,-398.59,-65.54)"
       gradientUnits="userSpaceOnUse">
      <stop
         style="stop-color:#c5342e;stop-opacity:1"
         id="stop10-9"
         stop-color="#c40904"
         offset="0" />
      <stop
         id="stop8-0"
         stop-color="#d56224"
         offset="0.34"
         style="stop-color:#ca332f;stop-opacity:1" />
      <stop
         id="stop6-0"
         stop-color="#e59616"
         offset="0.67"
         style="stop-color:#e02e31;stop-opacity:1" />
      <stop
         id="stop4-9"
         stop-color="#f3c006"
         offset="1"
         style="stop-color:#e02e31;stop-opacity:1" />
    </radialGradient>
  </defs>
  <title
     id="title15">PP</title>
  <g
     id="_7790aacb"
     data-name="#7790aacb"
     transform="translate(-105.43412,-322.6881)" />
  <g
     id="_0056a3ff"
     data-name="#0056a3ff"
     transform="translate(-105.43412,-322.6881)" />
  <path
     id="path54"
     d="m 1.696855,170.07845 c 0,0 88.581876,-95.087882 192.177625,-139.128592 103.59575,-44.0407 188.17392,-27.0249804 188.17392,-27.0249804 0,0 51.92402,5.68713 132.62258,60.5559704 77.75203,52.865432 79.41089,48.305372 91.8755,53.156512 0,0 28.31148,9.14687 52.83414,9.14687 24.52267,0 29.45133,-4.75018 29.45133,-4.75018 0,0 -33.02379,23.35754 -74.56893,24.0222 -40.80341,0.65279 -73.50554,-21.18792 -75.50775,-22.68885 0,0 -110.16385,-83.909682 -188.73648,-92.918002 C 271.44617,21.441068 206.8865,47.465128 206.8865,47.465128 211.60662,42.496588 80.059109,94.229588 1.696855,170.07845 Z"
     style="fill:#26499d;fill-opacity:1;stroke:#000000;stroke-width:0;stroke-linecap:butt;stroke-linejoin:miter;stroke-miterlimit:4;stroke-dasharray:none;stroke-opacity:1" />
  <path
     id="path866"
     d="m 463.26371,257.427 c 0,0 -33.47433,25.32033 -94.84394,20.59959 -61.3696,-4.72074 -78.10677,-13.73306 -78.10677,-13.73306 l -35.19096,-13.3039 c 0,0 -93.41605,-42.18933 -145.4846,-41.62834 -43.092957,0.46429 -63.008419,5.64817 -63.944557,6.00822 0,0 -40.340861,11.15811 -42.91581,1.28747 -2.57494797,-9.87064 15.741967,-15.81184 15.741967,-15.81184 1.020123,-1.36016 50.790466,-14.59203 93.26419,-11.65428 47.7281,3.30117 74.67351,10.72895 74.67351,10.72895 0,0 49.35318,16.30801 64.80287,25.74949 15.44969,9.44148 35.62013,18.88296 35.62013,18.88296 0,0 63.08624,35.62012 176.38397,12.87474 z"
     style="fill:#26499d;fill-opacity:1;stroke:#000000;stroke-width:0;stroke-linecap:butt;stroke-linejoin:miter;stroke-miterlimit:4;stroke-dasharray:none;stroke-opacity:1" />
  <circle
     r="11.879684"
     cy="104.16522"
     cx="391.27463"
     id="path868"
     style="opacity:1;fill:#26499d;fill-opacity:1;fill-rule:evenodd;stroke:#dd7229;stroke-width:0;stroke-linecap:round;stroke-miterlimit:4;stroke-dasharray:none;stroke-opacity:1;paint-order:stroke fill markers" />
  <circle
     r="10.482075"
     cy="141.02719"
     cx="403.06696"
     id="path868-5"
     style="opacity:1;fill:#26499d;fill-opacity:1;fill-rule:evenodd;stroke:#dd7229;stroke-width:0;stroke-linecap:round;stroke-miterlimit:4;stroke-dasharray:none;stroke-opacity:1;paint-order:stroke fill markers" />
  <circle
     r="9.8706207"
     cy="178.32593"
     cx="389.52762"
     id="path868-5-3"
     style="opacity:1;fill:#26499d;fill-opacity:1;fill-rule:evenodd;stroke:#dd7229;stroke-width:0;stroke-linecap:round;stroke-miterlimit:4;stroke-dasharray:none;stroke-opacity:1;paint-order:stroke fill markers" />
  <circle
     r="8.5603619"
     cy="200.4256"
     cx="357.29523"
     id="path868-5-3-2"
     style="opacity:1;fill:#26499d;fill-opacity:1;fill-rule:evenodd;stroke:#dd7229;stroke-width:0;stroke-linecap:round;stroke-miterlimit:4;stroke-dasharray:none;stroke-opacity:1;paint-order:stroke fill markers" />
  <circle
     r="6.9880509"
     cy="199.02798"
     cx="321.91824"
     id="path868-5-3-2-3"
     style="opacity:1;fill:#26499d;fill-opacity:1;fill-rule:evenodd;stroke:#dd7229;stroke-width:0;stroke-linecap:round;stroke-miterlimit:4;stroke-dasharray:none;stroke-opacity:1;paint-order:stroke fill markers" />
  <circle
     r="6.1145449"
     cy="182.25668"
     cx="295.45099"
     id="path868-5-3-2-3-2"
     style="opacity:1;fill:#26499d;fill-opacity:1;fill-rule:evenodd;stroke:#dd7229;stroke-width:0;stroke-linecap:round;stroke-miterlimit:4;stroke-dasharray:none;stroke-opacity:1;paint-order:stroke fill markers" />
  <circle
     r="5.153688"
     cy="159.72021"
     cx="282.26108"
     id="path868-5-3-2-3-2-2"
     style="opacity:1;fill:#26499d;fill-opacity:1;fill-rule:evenodd;stroke:#dd7229;stroke-width:0;stroke-linecap:round;stroke-miterlimit:4;stroke-dasharray:none;stroke-opacity:1;paint-order:stroke fill markers" />
  <g
     id="text962"
     style="font-style:normal;font-variant:normal;font-weight:normal;font-stretch:normal;font-size:39.40100098px;line-height:1.25;font-family:Interface;-inkscape-font-specification:Interface;letter-spacing:0px;word-spacing:0px;fill:#26499d;fill-opacity:1;stroke:none;stroke-width:0.98502505"
     transform="scale(0.98502504,1.0152026)"
     aria-label="CGR">
    <path
       id="path970"
       style="font-style:normal;font-variant:normal;font-weight:bold;font-stretch:normal;font-size:183.87133789px;font-family:'Century Gothic';-inkscape-font-specification:'Century Gothic Bold';stroke-width:0.98502505"
       d="m 623.02389,188.41132 -17.59706,16.78903 q -17.95618,-18.94378 -40.40142,-18.94378 -18.94377,0 -31.96201,12.92846 -12.92845,12.92845 -12.92845,31.87223 0,13.19779 5.74598,23.43282 5.74598,10.23502 16.25035,16.07078 10.50437,5.83576 23.34304,5.83576 10.95327,0 20.02115,-4.04014 9.06787,-4.12992 19.93136,-14.90363 l 17.05838,17.77662 q -14.63429,14.27517 -27.65253,19.84159 -13.01823,5.47663 -29.71748,5.47663 -30.79486,0 -50.45689,-19.48246 -19.57224,-19.57224 -19.57224,-50.09775 0,-19.75181 8.88831,-35.10435 8.9781,-15.35254 25.58757,-24.68975 16.69925,-9.33722 35.91237,-9.33722 16.34013,0 31.42332,6.91313 15.17298,6.91313 26.12625,19.66203 z" />
    <path
       id="path972"
       style="font-style:normal;font-variant:normal;font-weight:bold;font-stretch:normal;font-size:183.87133789px;font-family:'Century Gothic';-inkscape-font-specification:'Century Gothic Bold';stroke-width:0.98502505"
       d="m 766.85294,186.70548 -17.68684,17.50728 q -16.78904,-17.77662 -39.14449,-17.77662 -19.48246,0 -32.68026,12.92845 -13.10801,12.92845 -13.10801,31.42332 0,19.12334 13.6467,32.41092 13.6467,13.28758 33.66785,13.28758 13.01823,0 21.90654,-5.47664 8.9781,-5.47664 14.45473,-17.14816 h -38.24667 v -23.61238 h 66.43788 l 0.17957,5.56642 q 0,17.32771 -8.9781,32.85981 -8.97809,15.53211 -23.25326,23.70217 -14.27516,8.17006 -33.48828,8.17006 -20.55983,0 -36.7204,-8.88831 -16.07079,-8.97809 -25.49778,-25.49778 -9.33722,-16.51969 -9.33722,-35.64303 0,-26.21603 17.32772,-45.60871 20.55983,-23.0737 53.50943,-23.0737 17.23794,0 32.23135,6.37445 12.65911,5.38685 24.77954,18.49487 z" />
    <path
       id="path974"
       style="font-style:normal;font-variant:normal;font-weight:bold;font-stretch:normal;font-size:183.87133789px;font-family:'Century Gothic';-inkscape-font-specification:'Century Gothic Bold';stroke-width:0.98502505"
       d="m 801.05948,165.15806 h 26.66494 q 21.90654,0 31.15398,3.95036 9.33721,3.86058 14.99341,12.92845 5.6562,9.06787 5.6562,21.45764 0,13.01824 -6.28466,21.81677 -6.19489,8.70875 -18.76422,13.19779 l 31.24376,58.71673 h -27.47296 l -29.71749,-55.93352 h -2.3343 v 55.93352 h -25.13866 z m 25.13866,51.62403 h 7.90072 q 12.03065,0 16.51969,-3.14233 4.57883,-3.14234 4.57883,-10.41459 0,-4.30949 -2.24452,-7.45182 -2.24453,-3.23211 -6.01533,-4.57882 -3.7708,-1.4365 -13.82626,-1.4365 h -6.91313 z" />
  </g>
</svg>
